<?xml version="1.0" standalone="no"?>
<!DOCTYPE svg PUBLIC "-//W3C//DTD SVG 20010904//EN"
 "http://www.w3.org/TR/2001/REC-SVG-20010904/DTD/svg10.dtd">
<svg version="1.0" xmlns="http://www.w3.org/2000/svg"
 width="648.000000pt" height="648.000000pt" viewBox="0 0 648.000000 648.000000"
 preserveAspectRatio="xMidYMid meet">
<metadata>
Created by potrace 1.14, written by Peter Selinger 2001-2017
</metadata>
<g transform="translate(0.000000,648.000000) scale(0.100000,-0.100000)"
fill="#000000" stroke="none">
<path d="M3585 5781 l0 -699 -152 1 c-83 1 -149 -1 -147 -5 3 -4 -2 -5 -11 -1
-24 9 -314 10 -309 1 3 -4 -2 -5 -11 -1 -27 10 -314 9 -308 -1 4 -5 0 -6 -7
-1 -10 6 -298 11 -325 5 -5 -1 -12 -2 -15 -1 -16 6 -459 3 -468 -3 -6 -3 -13
-3 -15 1 -3 5 -31 7 -64 5 l-58 -4 1 -931 c1 -513 2 -937 3 -943 1 -7 276 -10
944 -10 l942 1 0 937 c0 735 3 940 13 950 9 9 12 9 12 -1 0 -7 5 -9 11 -5 14
8 1144 9 1157 0 11 -7 11 -2072 0 -2111 -3 -11 -9 -49 -14 -85 -4 -36 -8 -67
-9 -70 -1 -3 -5 -23 -9 -45 -5 -22 -15 -64 -23 -94 -8 -29 -16 -59 -18 -65 -1
-6 -5 -18 -8 -26 -3 -8 -17 -45 -31 -83 -34 -91 -133 -286 -155 -307 -4 -3
-22 -27 -41 -55 -73 -106 -191 -225 -305 -310 -22 -16 -41 -33 -43 -37 -2 -4
-8 -8 -13 -8 -5 0 -32 -15 -61 -33 -143 -90 -388 -180 -551 -203 -193 -26
-402 -22 -557 10 -411 86 -733 299 -958 632 -105 154 -217 429 -237 578 -3 15
-6 35 -9 45 -5 17 -16 83 -22 136 -2 17 -6 77 -9 135 -4 57 -8 107 -10 110 -2
3 -365 5 -807 4 l-803 0 1 -115 c0 -133 9 -261 24 -374 6 -44 13 -93 15 -110
12 -96 56 -291 92 -414 14 -47 26 -90 27 -97 1 -8 5 -17 9 -20 4 -4 7 -14 7
-21 0 -49 164 -409 257 -567 29 -49 53 -92 53 -97 0 -5 4 -9 8 -9 5 0 15 -12
23 -27 8 -15 19 -35 26 -43 22 -27 108 -143 118 -158 6 -8 17 -23 25 -32 8 -9
32 -36 53 -60 89 -103 219 -230 326 -320 23 -19 48 -40 54 -45 31 -27 199
-145 262 -184 127 -80 140 -87 187 -110 27 -13 50 -26 53 -31 3 -4 17 -11 32
-15 16 -3 35 -12 43 -19 8 -7 31 -19 50 -26 19 -7 63 -26 98 -41 34 -16 67
-29 72 -29 6 0 18 -4 28 -10 47 -26 353 -117 492 -145 259 -53 430 -70 725
-69 202 0 332 6 415 19 14 2 45 7 70 10 52 7 245 42 275 49 52 13 111 28 125
31 40 8 202 61 284 92 50 19 96 36 101 37 19 6 50 19 135 59 47 22 87 41 90
42 5 1 28 13 120 65 30 17 66 36 80 43 14 6 27 14 30 17 3 3 50 34 105 70 55
36 105 70 110 76 6 6 26 22 45 35 89 59 300 255 411 380 65 73 150 181 199
254 18 28 37 52 40 55 4 3 10 12 13 20 4 8 27 47 51 85 44 69 146 267 183 355
11 25 28 65 39 90 10 24 19 47 20 50 0 3 3 12 7 20 11 29 49 145 52 160 2 8 4
15 5 15 1 0 3 7 5 15 1 8 10 40 19 71 9 31 18 65 20 75 3 11 10 42 16 69 6 28
14 61 16 75 2 14 9 48 14 75 5 28 12 67 15 88 3 20 7 52 9 70 3 17 8 57 11 87
4 30 9 71 12 90 3 19 7 844 9 1833 l4 1797 -1408 0 -1408 0 1 -699z"/>
</g>
</svg>
