<svg xmlns="http://www.w3.org/2000/svg" viewBox="0 0 244.51 81.41"><defs><style>.cls-1{font-size:25.42px;font-family:IntroDemo-BlackCaps, Intro Demo;font-weight:800;}.cls-1,.cls-5{fill:#be1e2d;}.cls-2{letter-spacing:-0.04em;}.cls-3{letter-spacing:0em;}.cls-4{fill:#231f20;}.cls-6{letter-spacing:-0.06em;}</style></defs><title>Asset 8</title><g id="Layer_2" data-name="Layer 2"><g id="Layer_3" data-name="Layer 3"><text class="cls-1" transform="translate(98.56 38.15)">jon<tspan class="cls-2" x="57.25" y="0">a</tspan><tspan class="cls-3" x="74.36" y="0">than</tspan></text><path class="cls-4" d="M44,0V17.57H59.14V51.29c0,.05,0,.09,0,.14V73.51c5.46-6,9.77-5.56,12.53-11,2.59-5.13,3.36-5,5-10.14l2.7-11.15V0Z"/><path class="cls-4" d="M59.13,5.76V41.1s0,.07,0,.1,0,.07,0,.11v.36h0c-.44,27.57-38.7,27.45-38.78-.38H0c.08,53.33,78.8,53.5,79.36.49,0-.19,0-.39,0-.58C79.37,23.55,70.71,11.76,59.13,5.76Z"/><rect class="cls-5" x="20.3" y="17.57" width="23.72" height="23.72"/><text class="cls-1" transform="translate(99.66 61.11)"><tspan class="cls-6">y</tspan><tspan x="15.3" y="0">abes</tspan></text></g></g></svg>