<?xml version="1.0" encoding="utf-8"?>
<!-- Generator: Adobe Illustrator 24.0.2, SVG Export Plug-In . SVG Version: 6.00 Build 0)  -->
<svg version="1.1" id="Layer_1" xmlns="http://www.w3.org/2000/svg" xmlns:xlink="http://www.w3.org/1999/xlink" x="0px" y="0px"
	 viewBox="0 0 242.6 81.4" style="enable-background:new 0 0 242.6 81.4;" xml:space="preserve">
<style type="text/css">
	.st0{fill:#BE1E2D;}
</style>
<g>
	<path class="st0" d="M106.4,38.4c-3.7,0-6.7-2.2-6.7-6.1v-2.3h4.3v2.2c0,1.4,1,2.1,2.4,2.1s2.2-0.7,2.2-2.1v-7.8H106v-4h7.2v11.9
		C113.3,36.1,110.1,38.4,106.4,38.4z"/>
	<path class="st0" d="M116.6,29.3c0-12.3,18.3-12.3,18.3,0C134.8,41.6,116.6,41.6,116.6,29.3z M130.2,29.3c0-6.4-8.9-6.4-8.9,0
		C121.2,35.7,130.2,35.7,130.2,29.3z"/>
	<path class="st0" d="M138.2,38.1V20.3h1.7l9,8.8v-8.7h4.7v17.8h-1.6l-9-8.8v8.7H138.2z"/>
	<path class="st0" d="M160.3,38.1h-4.4v-0.7l8-17.4h2l8,17.4v0.7h-4.4l-1-2.2h-7L160.3,38.1z M166.8,32l-2-4.7l-2,4.7H166.8z"/>
	<path class="st0" d="M186.7,20.4v4.1h-4.3v13.7h-4.5V24.4h-4.4v-4.1H186.7z"/>
	<path class="st0" d="M199.6,31h-5.5v7.1h-4.7V20.4h4.7v6.5h5.5v-6.5h4.7v17.8h-4.7V31z"/>
	<path class="st0" d="M211.1,38.1h-4.4v-0.7l8-17.4h2l8,17.4v0.7h-4.4l-1-2.2h-7L211.1,38.1z M217.6,32l-2-4.7l-2,4.7H217.6z"/>
	<path class="st0" d="M226.9,38.1V20.3h1.7l9,8.8v-8.7h4.7v17.8h-1.6l-9-8.8v8.7H226.9z"/>
</g>
<path d="M44,0v17.6h15.1v0h0v33.7c0,0,0,0.1,0,0.1v22.1c5.5-6,9.8-5.6,12.5-11c2.6-5.1,3.4-5,5-10.1l2.7-11.1V0H44z"/>
<path d="M59.1,5.8v35.3c0,0,0,0.1,0,0.1c0,0,0,0.1,0,0.1v0.4h0c-0.4,27.6-38.7,27.4-38.8-0.4H0c0.1,53.3,78.8,53.5,79.4,0.5
	c0-0.2,0-0.4,0-0.6C79.4,23.6,70.7,11.8,59.1,5.8z"/>
<rect x="20.3" y="17.6" class="st0" width="23.7" height="23.7"/>
<g>
	<path class="st0" d="M105.9,53.6l-6-9.6v-0.7h4.9l3.2,5.9h0.2l3.2-5.9h4.9V44l-6,9.6v7.5h-4.5V53.6z"/>
	<path class="st0" d="M119.4,61.1H115v-0.7l8-17.4h2l8,17.4v0.7h-4.4l-1-2.2h-7L119.4,61.1z M126,55l-2-4.7l-2,4.7H126z"/>
	<path class="st0" d="M147.1,51.9c1.4,0.7,2.1,2.1,2.1,3.6c0,3.1-1.9,5.6-5.5,5.6h-8.3V43.3h7.6c3.1,0,5.5,2.4,5.5,5.5
		C148.5,49.9,147.9,51.1,147.1,51.9z M142.6,50.3c1.8,0,1.8-2.9,0-2.9h-2.8v2.9H142.6z M143.4,57.1c1.8,0,1.8-3,0-3h-3.6v3H143.4z"
		/>
	<path class="st0" d="M157.3,47.4v2.5h6.1v4h-6.1v3.1h6.8v4h-11.3V43.3h11.1v4.1H157.3z"/>
	<path class="st0" d="M176.7,55.8c0-1.2-1.5-1.4-3.3-1.6c-3.9-0.3-6.4-1.6-6.5-5.5c-0.2-7.7,13.7-7.7,13.6,0h-4.3
		c0-2.4-4.8-2.2-4.9-0.1c-0.1,1.3,1.2,1.6,2.8,1.8c3.5,0.4,7,0.8,7,5.3c0,7.5-14.5,7.7-14.4-0.2h4.4
		C171.2,57.9,176.7,57.9,176.7,55.8z"/>
</g>
<g>
</g>
<g>
</g>
<g>
</g>
<g>
</g>
<g>
</g>
<g>
</g>
</svg>
